<svg version="1.1" id="Layer_1" xmlns="http://www.w3.org/2000/svg" xmlns:xlink="http://www.w3.org/1999/xlink" x="0px" y="0px"
	 width="100%" viewBox="0 0 512 512" enable-background="new 0 0 512 512" xml:space="preserve">
<path fill="#000000" opacity="1.000000" stroke="none" 
	d="
M1.000000,69.468658 
	C3.243256,69.897476 5.601628,69.634117 7.920719,69.634842 
	C57.251316,69.650307 106.581917,69.650368 155.912521,69.646561 
	C162.619629,69.646042 162.635345,69.629120 162.645355,63.033295 
	C162.662842,51.533962 162.761810,40.033176 162.603439,28.536076 
	C162.553406,24.904921 163.723572,23.537315 167.459961,23.584751 
	C180.457138,23.749760 193.458694,23.738159 206.456284,23.589882 
	C210.079803,23.548546 211.462402,24.714514 211.405457,28.453951 
	C211.230377,39.950600 211.338547,51.451683 211.351700,62.951027 
	C211.359329,69.623016 211.372345,69.645096 217.942947,69.645889 
	C267.606873,69.651909 317.270813,69.648003 366.934723,69.648773 
	C374.328888,69.648888 374.333527,69.652710 374.336548,76.907204 
	C374.341492,88.739883 374.119385,100.578636 374.445557,112.402344 
	C374.582336,117.359558 372.824158,118.547134 368.128906,118.484741 
	C349.633148,118.238968 331.125763,118.649460 312.637299,118.206863 
	C307.138977,118.075241 305.006836,120.175652 303.536804,124.903793 
	C297.211517,145.247742 288.901794,164.791428 279.263580,183.781235 
	C267.635193,206.692261 253.794647,228.188202 237.871994,248.336945 
	C233.149216,254.313202 228.407898,260.318726 223.159409,265.818787 
	C220.113968,269.010193 219.910172,271.017944 223.230240,273.912231 
	C241.071335,289.465332 256.927948,307.063324 274.044373,323.361420 
	C277.543823,326.693573 278.454620,329.357880 276.505859,334.079041 
	C271.314362,346.656433 266.881317,359.545288 262.049072,372.273254 
	C260.138000,377.307007 259.231537,377.523651 255.315582,373.648682 
	C243.114426,361.575195 231.010040,349.403839 218.878845,337.259735 
	C209.693344,328.064453 200.349045,319.017975 191.435806,309.565491 
	C187.969315,305.889252 185.686844,306.334717 182.486404,309.583832 
	C168.454636,323.829010 154.289520,337.942841 140.174072,352.105621 
	C118.414566,373.938019 96.617065,395.732880 74.940170,417.647034 
	C71.755905,420.866211 69.326622,420.914124 66.178284,417.686981 
	C57.334267,408.621735 48.386383,399.654022 39.315823,390.815765 
	C36.319744,387.896454 36.541107,385.893982 39.542603,383.100342 
	C68.451004,356.193512 95.607079,327.502869 123.953255,300.029419 
	C132.911926,291.346588 141.753769,282.530792 150.824478,273.959625 
	C153.399017,271.526886 154.100510,269.648743 151.409348,266.497742 
	C137.694229,250.439117 124.999809,233.609406 113.611198,215.788116 
	C103.474991,199.926620 95.059387,183.157944 86.674835,166.358459 
	C86.235962,165.479126 85.718369,164.564697 86.334198,163.459610 
	C87.529282,162.349915 89.095070,162.675507 90.540115,162.672028 
	C103.539314,162.640610 116.540047,162.759598 129.536880,162.582077 
	C132.818771,162.537247 134.924896,163.679153 136.343002,166.458633 
	C146.724060,186.805435 159.448654,205.640457 173.445709,223.631927 
	C177.588715,228.957214 182.146011,233.960159 187.147598,239.858688 
	C218.939911,204.200043 242.450638,164.449631 258.566681,120.362404 
	C255.595413,117.704948 252.637222,118.396767 249.893372,118.395714 
	C169.564514,118.365013 89.235641,118.377899 8.906771,118.375877 
	C6.574892,118.375824 4.243014,118.289917 1.455568,118.122025 
	C1.000000,101.979103 1.000000,85.958214 1.000000,69.468658 
z"/>
<path fill="#000000" opacity="1.000000" stroke="none" 
	d="
M513.000000,490.583344 
	C502.546082,489.644409 492.042419,490.774017 481.570923,490.364563 
	C476.434204,490.163757 470.432251,492.231476 466.392883,489.478119 
	C462.381409,486.743805 462.054871,480.467377 460.236694,475.698547 
	C453.799530,458.814941 447.368652,441.928284 441.095459,424.983521 
	C439.891479,421.731323 438.277252,420.270813 434.599060,420.286072 
	C402.105499,420.420837 369.610809,420.447845 337.117493,420.293091 
	C332.184875,420.269623 329.939056,421.996429 328.242249,426.735596 
	C321.021790,446.902374 313.245209,466.869507 305.787415,486.952545 
	C304.889526,489.370483 303.597412,490.399231 301.061096,490.394012 
	C287.563782,490.366333 274.066040,490.381622 260.569031,490.474152 
	C256.369354,490.502960 256.377411,488.439209 257.534454,485.337921 
	C263.049988,470.554565 268.454926,455.729858 273.987457,440.952881 
	C281.614685,420.581268 289.323242,400.240051 296.993256,379.884369 
	C307.705597,351.454498 318.443481,323.034241 329.116272,294.589508 
	C338.507172,269.561218 347.883850,244.527206 357.142792,219.449936 
	C360.747009,209.688095 360.592407,209.634399 370.965485,209.638885 
	C382.130127,209.643723 393.295898,209.731613 404.458649,209.586487 
	C407.768341,209.543457 409.428436,210.615494 410.630249,213.870682 
	C418.039917,233.940186 425.736359,253.903610 433.285583,273.921875 
	C444.228424,302.938812 455.163574,331.958740 466.033661,361.003021 
	C475.276733,385.699982 484.379700,410.449371 493.627502,435.144592 
	C499.907745,451.915375 506.331177,468.632507 512.845337,485.686829 
	C513.000000,487.388885 513.000000,488.777802 513.000000,490.583344 
M378.272400,293.575470 
	C368.553131,319.579529 358.833862,345.583618 348.908813,372.138245 
	C373.461182,372.138245 396.773254,372.138245 421.089172,372.138245 
	C408.961670,339.687073 397.127777,308.021545 384.941406,275.412842 
	C382.564880,281.966309 380.587402,287.419312 378.272400,293.575470 
z"/>
</svg>